<?xml version="1.0" standalone="yes"?>
<svg xmlns="http://www.w3.org/2000/svg" width="500" height="500">
<path style="fill:#010101; stroke:none;" d="M0 0L0 500L500 500L500 0L0 0z"/>
<path style="fill:#1c5c43; stroke:none;" d="M260 73L261 74L260 73z"/>
<path style="fill:#01dddd; stroke:none;" d="M261.623 74.081C259.984 75.1974 260.532 77.607 262.323 78.1528C266.824 79.5249 274.028 78.2958 279 79.0008C303.782 82.5145 327.313 92.8686 348 106.667C419.098 154.088 448.451 254.677 406.564 331C356.257 422.667 237.147 456.851 150 394.573C124.222 376.151 104.266 351.568 90.7809 323C87.1856 315.383 85.0545 308.172 83.4367 300.062C83.0995 298.372 81.6478 296.075 79.6034 297.323C76.9754 298.927 80.0826 302.534 80.973 304.17C84.5114 310.67 86.0145 318.295 89.2585 325C103.307 354.038 122.726 377.959 149 396.845C215.858 444.904 310.834 436.247 371 381.83C439.889 319.524 447.296 204.043 383.914 135C359.197 108.075 328.065 87.5413 292 79.5756C284.732 77.9702 277.215 77.3863 270 75.7161C267.647 75.1712 263.981 72.4742 261.623 74.081z"/>
<path style="fill:#1c5c43; stroke:none;" d="M265 73L266 74L265 73M259.333 75.6667L259.667 76.3333L259.333 75.6667M267 75L267 76L271 76L267 75M220 76L220 77L227 77L220 76z"/>
<path style="fill:#01dddd; stroke:none;" d="M160 113C166.284 109.858 170.765 100.676 177 96C188.401 87.4495 200.5 82.375 214 79C219.014 77.7466 238.021 76.9171 237 81L241 79C235.663 74.956 227.285 76.692 221 77C196.872 78.1823 172.733 92.6402 160 113z"/>
<path style="fill:#1c5c43; stroke:none;" d="M231 76L231 77L238 77L231 76M275 76L275 77L278 77L275 76M213 77L213 78L216 78L213 77M240 77L241 78L240 77M265 77L265 78L268 78L265 77M282.667 77.3333L283.333 77.6667L282.667 77.3333M209.667 78.3333L210.333 78.6667L209.667 78.3333M220 78L220 79L233 79L220 78M264 78L265 79L264 78M273 78L273 79L276 79L273 78M287.667 78.3333L288.333 78.6667L287.667 78.3333M205.667 79.3333L206.333 79.6667L205.667 79.3333M213 79L213 80L217 80L213 79z"/>
<path style="fill:#010101; stroke:none;" d="M160 115L237 80C230.876 77.4301 221.471 78.8046 215 79.7292C194.023 82.7263 170.077 95.5748 160 115z"/>
<path style="fill:#1c5c43; stroke:none;" d="M237 79L238 80L237 79M280 79L280 80L283 80L280 79M291.667 79.3333L292.333 79.6667L291.667 79.3333M165 80L166 81L165 80z"/>
<path style="fill:#01dddd; stroke:none;" d="M166 80C151.969 90.401 137.63 104.797 130.439 121C126.306 130.313 126.395 141.005 121.74 150C114.022 164.915 101.782 177.401 97 194L96 194L112 140L111 140L95 192L94 192L93.7816 168L111 127L112 127L112 139L113 139L113 123L112 123C105.174 139.397 94.2176 155.21 91.439 173C90.0716 181.755 95.6244 190.956 93.6566 199.09C90.1083 213.756 81.4419 227.122 78 242L77 242L72 197L71 197L76.5301 244L72 271L73 271C75.7877 248.962 84.0565 227.471 92.3966 207C95.3531 199.743 98.827 187.722 105.213 182.815C112.259 177.401 121.988 176.697 130 173.535C137.215 170.689 143.378 165.552 150 161.604C155.033 158.604 161.214 156.375 164 151C146.144 155.399 128.493 155.999 113 167C117.799 158.577 127.597 144.074 137 140.603C158.026 132.843 195.777 138.388 206 112C183.637 112.975 162.717 126.946 142 134L160 117.075L201 102.124L234 83L234 82L197 101.548L156.83 116.654L128 144L157.258 96L166 80z"/>
<path style="fill:#1c5c43; stroke:none;" d="M202 80L203 81L202 80M209 80L210 81L209 80M225.667 80.3333L226.333 80.6667L225.667 80.3333M236.333 80.6667L236.667 81.3333L236.333 80.6667M238 80L239 81L238 80M286 80L287 81L286 80M296 80L297 81L296 80M200 81L201 82L200 81M205 81L206 82L205 81M221.667 81.3333L222.333 81.6667L221.667 81.3333z"/>
<path style="fill:#01dddd; stroke:none;" d="M170 108C188.039 97.1386 207.047 88.75 227 82C221.909 80.1786 215.764 83.4959 211 85.3997C197.627 90.7438 179.093 96.218 170 108z"/>
<path style="fill:#1c5c43; stroke:none;" d="M234.333 81.6667L234.667 82.3333L234.333 81.6667z"/>
<path style="fill:#01dddd; stroke:none;" d="M235 81L236 82L235 81z"/>
<path style="fill:#1c5c43; stroke:none;" d="M290.667 81.3333L291.333 81.6667L290.667 81.3333M300 81L301 82L300 81M162 82L163 83L162 82M166 82L167 83L166 82M197 82L198 83L197 82M201.667 82.3333L202.333 82.6667L201.667 82.3333M218 82L219 83L218 82M225 82L226 83L225 82M232 82L233 83L232 82M294.667 82.3333L295.333 82.6667L294.667 82.3333M303 82L304 83L303 82M161 83L162 84L161 83M165 83L166 84L165 83M199 83L200 84L199 83M215 83L216 84L215 83M222 83L223 84L222 83M230 83L231 84L230 83M298.667 83.3333L299.333 83.6667L298.667 83.3333M306 83L307 84L306 83M160 84L161 85L160 84M164 84L165 85L164 84M196 84L197 85L196 84M213 84L214 85L213 84M220 84L221 85L220 84M228 84L229 85L228 84M231 84L232 85L231 84M301.667 84.3333L302.333 84.6667L301.667 84.3333M309 84L310 85L309 84M194 85L195 86L194 85M210 85L211 86L210 85M217 85L218 86L217 85M226 85L227 86L226 85M229 85L230 86L229 85M305 85L306 86L305 85M311 85L312 86L311 85M192 86L193 87L192 86M208 86L209 87L208 86M214 86L215 87L214 86M224 86L225 87L224 86M308 86L309 87L308 86M314 86L315 87L314 86M190 87L191 88L190 87M205 87L206 88L205 87M211.667 87.3333L212.333 87.6667L211.667 87.3333M222 87L223 88L222 87M226 87L227 88L226 87M310.667 87.3333L311.333 87.6667L310.667 87.3333M316.667 87.3333L317.333 87.6667L316.667 87.3333M161 88L162 89L161 88M185 88L186 89L185 88M188 88L189 89L188 88M203 88L204 89L203 88M209 88L210 89L209 88M224 88L225 89L224 88M313 88L314 89L313 88M319 88L320 89L319 88M186 89L187 90L186 89M200 89L201 90L200 89M206 89L207 90L206 89M219 89L220 90L219 89M222 89L223 90L222 89M316 89L317 90L316 89M322 89L323 90L322 89M182 90L183 91L182 90M184 90L185 91L184 90M198 90L199 91L198 90M204 90L205 91L204 90M217 90L218 91L217 90M318 90L319 91L318 90M324 90L325 91L324 90M157 91L158 92L157 91M159 91L160 92L159 91M180 91L181 92L180 91M183 91L184 92L183 91M196 91L197 92L196 91M215 91L216 92L215 91M219 91L220 92L219 91M320 91L321 92L320 91M326 91L327 92L326 91z"/>
<path style="fill:#010101; stroke:none;" d="M156 92C142.562 105.438 129.639 119.416 127 139L128 139L150.753 106L156 92z"/>
<path style="fill:#1c5c43; stroke:none;" d="M179 92L180 93L179 92M181 92L182 93L181 92M194 92L195 93L194 92M199 92L200 93L199 92M214 92L215 93L214 92M217 92L218 93L217 92M323 92L324 93L323 92M328 92L329 93L328 92M158 93L159 94L158 93M180 93L181 94L180 93M197 93L198 94L197 93M212 93L213 94L212 93M325 93L326 94L325 93M330 93L331 94L330 93M210 94L211 95L210 94M214 94L215 95L214 94M327 94L328 95L327 94M332 94L333 95L332 94M155 95L156 96L155 95M157 95L158 96L157 95M175 95L176 96L175 95M192 95L193 96L192 95M212 95L213 96L212 95M329 95L330 96L329 95M174 96L175 97L174 96M176 96L177 97L176 96M190 96L191 97L190 96M207 96L208 97L207 96M331 96L332 97L331 96M156 97L157 98L156 97M175 97L176 98L175 97M188 97L189 98L188 97M205 97L206 98L205 97M209 97L210 98L209 97M333 97L334 98L333 97M337 97L338 98L337 97M174 98L175 99L174 98M182 98L183 99L182 98M186 98L187 99L186 98M203 98L204 99L203 98M207 98L208 99L207 98M339 98L340 99L339 98M145 99L146 100L145 99M155 99L156 100L155 99M173 99L174 100L173 99M180 99L181 100L180 99M184 99L185 100L184 99M201 99L202 100L201 99M336 99L337 100L336 99M341 99L342 100L341 99M144 100L145 101L144 100M153 100L154 101L153 100M182 100L183 101L182 100M199 100L200 101L199 100M338 100L339 101L338 100M143 101L144 102L143 101M154 101L155 102L154 101M177 101L178 102L177 101M180 101L181 102L180 101M197 101L198 102L197 101M340 101L341 102L340 101M344 101L345 102L344 101M152 102L153 103L152 102M194 102L195 103L194 102M153 103L154 104L153 103M167 103L168 104L167 103M174 103L175 104L174 103M177 103L178 104L177 103M191 103L192 104L191 103M197 103L198 104L197 103M343 103L344 104L343 103M347 103L348 104L347 103M151 104L152 105L151 104M166 104L167 105L166 104M168 104L169 105L168 104M175 104L176 105L175 104M188.667 104.333L189.333 104.667L188.667 104.333M194.667 104.333L195.333 104.667L194.667 104.333M140 105L141 106L140 105M143 105L144 106L143 105M165 105L166 106L165 105M167 105L168 106L167 105M173 105L174 106L173 105M185 105L186 106L185 105M192 105L193 106L192 105M346 105L347 106L346 105M350 105L351 106L350 105M139 106L140 107L139 106M142 106L143 107L142 106M150 106L151 107L150 106M164 106L165 107L164 106M166 106L167 107L166 106M170 106L171 107L170 106M172 106L173 107L172 106M182 106L183 107L182 106M189 106L190 107L189 106M138 107L139 108L138 107M141 107L142 108L141 107M165 107L166 108L165 107M169.333 107.667L169.667 108.333L169.333 107.667M179 107L180 108L179 107M186 107L187 108L186 107M349 107L350 108L349 107M353 107L354 108L353 107M142 108L143 109L142 108M149 108L150 109L149 108M151 108L152 109L151 108M164 108L165 109L164 108M175.667 108.333L176.333 108.667L175.667 108.333M182.667 108.333L183.333 108.667L182.667 108.333M137 109L138 110L137 109z"/>
<path style="fill:#01dddd; stroke:none;" d="M142 109L134 126L135 126L142 109z"/>
<path style="fill:#1c5c43; stroke:none;" d="M162 109L163 110L162 109M173 109L174 110L173 109M179 109L180 110L179 109M352 109L353 110L352 109M136 110L137 111L136 110M141 110L142 111L141 110M148 110L149 111L148 110M150 110L151 111L150 110M161 110L162 111L161 110M170 110L171 111L170 110M176 110L177 111L176 110M357 110L358 111L357 110M138 111L139 112L138 111M142 111L143 112L142 111M160 111L161 112L160 111M167 111L168 112L167 111M173 111L174 112L173 111M204.667 111.333L205.333 111.667L204.667 111.333M355 111L356 112L355 111M137 112L138 113L137 112M140 112L141 113L140 112M147 112L148 113L147 112M149 112L150 113L149 112M165 112L166 113L165 112M170 112L171 113L170 112M199.667 112.333L200.333 112.667L199.667 112.333M356 112L357 113L356 112M134 113L135 114L134 113M141 113L142 114L141 113M159 116L161 113L159 116M163 113L164 114L163 113M168 113L169 114L168 113M195.667 113.333L196.333 113.667L195.667 113.333M361 113L362 114L361 113M136 114L137 115L136 114M139 114L140 115L139 114M146 114L147 115L146 114M148 114L149 115L148 114M161 114L162 115L161 114M165 114L166 115L165 114M192 114L193 115L192 114M201 114L202 116L203 116L204 114L201 114M362 114L363 115L362 114M133 115L134 116L133 115M135 115L136 116L135 115M140 115L141 116L140 115M163 115L164 116L163 115M189 115L190 116L189 115M198 115L199 116L198 115z"/>
<path style="fill:#010101; stroke:none;" d="M138 137L138 138L187 122L187 123L157 134L157 135C170.375 133.908 195.736 128.145 202 115C179.772 117.996 159.043 129.881 138 137z"/>
<path style="fill:#1c5c43; stroke:none;" d="M204 115L205 116L204 115M360 115L361 116L360 115M138 116L139 117L138 116M160 116L161 117L160 116M186 116L187 117L186 116M194 116L195 117L194 116M361 116L362 117L361 116M134 117L135 118L134 117M139 117L140 118L139 117M144 117L145 118L144 117M146 117L147 118L146 117M155 117L156 118L155 117M158 117L159 118L158 117M183 117L184 118L183 117M190.667 117.333L191.333 117.667L190.667 117.333M137 118L138 119L137 118M154 118L155 119L154 118M157 118L158 119L157 118M180 118L181 119L180 118M187 118L188 119L187 118M202 118L203 119L202 118M367 118L368 119L367 118M138 119L139 120L138 119M145 119L146 120L145 119M153 119L154 120L153 119M156 119L157 120L156 119M177 119L178 120L177 119M184 119L185 120L184 119M201 119L202 120L201 119M368 119L369 120L368 119M132 120L133 121L132 120M136 120L137 121L136 120M142 120L143 121L142 120M144 120L145 121L144 120M152 120L153 121L152 120M175 120L176 121L175 120M181 120L182 121L181 120M200 120L201 121L200 120M366 120L367 121L366 120M369 120L370 121L369 120M137 121L138 122L137 121M141 121L142 122L141 121M172 121L173 122L172 121M178 121L179 122L178 121M196 121L197 122L196 121M199 121L200 122L199 121M367 121L368 122L367 121M135 122L136 123L135 122M143 122L144 123L143 122M170 122L171 123L170 122M175 122L176 123L175 122M183 122L184 123L183 122z"/>
<path style="fill:#01dddd; stroke:none;" d="M147 135L147 136C158.292 134.542 178.122 130.619 186 122L147 135z"/>
<path style="fill:#1c5c43; stroke:none;" d="M186 122L187 123L186 122M195 122L196 123L195 122M198 122L199 123L198 122M368 122L369 123L368 122M129 123L130 124L129 123M167 123L168 124L167 123M173 123L174 124L173 123M180 123L181 124L180 123M185 123L186 124L185 123M193 123L194 124L193 123M369 123L370 124L369 123M111 124L112 125L111 124M134 124L135 125L134 124M139 124L140 125L139 124M164 124L165 125L164 124M170 124L171 125L170 124M177 124L178 125L177 124M195 124L196 125L195 124M370 124L371 125L370 124M128 125L129 126L128 125M130 125L131 126L130 125M138 125L139 126L138 125M141 125L142 126L141 125M162 125L163 126L162 125M167 125L168 126L167 125M175 125L176 126L175 125M181 125L182 126L181 125M193 125L194 126L193 125M371 125L372 126L371 125M110 126L111 127L110 126M133.667 126.333L134.333 126.667L133.667 126.333M137 126L138 127L137 126M140 126L141 127L140 126M160 126L161 127L160 126M165 126L166 127L165 126M172 126L173 127L172 126M179 126L180 127L179 126M187 126L188 127L187 126M111 127L112 128L111 127z"/>
<path style="fill:#01dddd; stroke:none;" d="M133 127L134 128L133 127z"/>
<path style="fill:#1c5c43; stroke:none;" d="M157 127L158 128L157 127M162 127L163 128L162 127M169.667 127.333L170.333 127.667L169.667 127.333M176 127L177 128L176 127M185 127L186 128L185 127M190 127L191 128L190 127M109 128L110 129L109 128z"/>
<path style="fill:#010101; stroke:none;" d="M111 128L112 129L111 128z"/>
<path style="fill:#1c5c43; stroke:none;" d="M127 128L128 129L127 128M129 128L130 129L129 128M132.667 128.333L133.333 128.667L132.667 128.333M155 128L156 129L155 128M160 128L161 129L160 128M167 128L168 129L167 128M173.667 128.333L174.333 128.667L173.667 128.333M182 128L183 129L182 128M188 128L189 129L188 128M111 129L112 142L113 142L111 129z"/>
<path style="fill:#01dddd; stroke:none;" d="M132 129L133 130L132 129z"/>
<path style="fill:#1c5c43; stroke:none;" d="M138 129L139 130L138 129M157 129L158 130L157 129M164 129L165 130L164 129M171 129L172 130L171 129M179.667 129.333L180.333 129.667L179.667 129.333M185 129L186 130L185 129M378 129L379 130L378 129M108 130L109 131L108 130M131.667 130.333L132.333 130.667L131.667 130.333M134 130L135 131L134 130M150 130L151 131L150 130M155 130L156 131L155 130M161 130L162 131L161 130M168 130L169 131L168 130M176 130L177 131L176 130M182.667 130.333L183.333 130.667L182.667 130.333M376 130L377 131L376 130M379 130L380 131L379 130z"/>
<path style="fill:#010101; stroke:none;" d="M110 131C101.106 152.391 92.1299 167.304 94 191L95 191C95.3969 171.773 117.78 149.542 110 131z"/>
<path style="fill:#1c5c43; stroke:none;" d="M126.333 131.667L126.667 132.333L126.333 131.667M128 131L129 132L128 131M133 131L134 132L133 131M148 131L149 132L148 131M152 131L153 132L152 131M158 131L159 132L158 131M165 131L166 132L165 131M173 131L174 132L173 131M179.667 131.333L180.333 131.667L179.667 131.333M377 131L378 132L377 131M380 131L381 132L380 131M109 132L110 133L109 132M132 132L133 133L132 132M136 132L137 133L136 132M146 132L147 133L146 132M149 132L150 133L149 132M155.667 132.333L156.333 132.667L155.667 132.333M162 132L163 133L162 132M169.667 132.333L170.333 132.667L169.667 132.333M176 132L177 133L176 132M378 132L379 133L378 132M381 132L382 133L381 132M135 133L136 134L135 133z"/>
<path style="fill:#010101; stroke:none;" d="M142 133L143 134L142 133z"/>
<path style="fill:#1c5c43; stroke:none;" d="M143 133L144 134L143 133M147 133L148 134L147 133M152.667 133.333L153.333 133.667L152.667 133.333M158.667 133.333L159.333 133.667L158.667 133.333M165.667 133.333L166.333 133.667L165.667 133.333M173 133L174 134L173 133M379 133L380 134L379 133M382 133L383 134L382 133M108 134L109 135L108 134M127.333 134.667L127.667 135.333L127.333 134.667M134 134L135 135L134 134M141 134L142 135L141 134M144 134L145 135L144 134M149 134L150 135L149 134M155 134L158 136L155 134M161.667 134.333L162.333 134.667L161.667 134.333M170 134L171 135L170 134M380 134L381 135L380 134M383 134L384 135L383 134M125 135L125 138L126 138L125 135M130 135L131 136L130 135M142 135L143 136L142 135M146 135L141 137L141 138L148 136L146 135M150 135L153 137L150 135z"/>
<path style="fill:#010101; stroke:none;" d="M152 135L152 136L156 136L152 135z"/>
<path style="fill:#1c5c43; stroke:none;" d="M166.667 135.333L167.333 135.667L166.667 135.333M381 135L382 136L381 135M107 136L108 137L107 136M129 136L130 137L129 136M139 136L140 137L139 136z"/>
<path style="fill:#01dddd; stroke:none;" d="M145 136L146 137L145 136z"/>
<path style="fill:#010101; stroke:none;" d="M148.667 136.333L149.333 136.667L148.667 136.333z"/>
<path style="fill:#1c5c43; stroke:none;" d="M163 136L164 137L163 136M105 137L106 138L105 137M132 137L133 138L132 137M158.667 137.333L159.333 137.667L158.667 137.333M131 138L132 139L131 138M153.667 138.333L154.333 138.667L153.667 138.333M104 139L105 140L104 139M126 139L126 141L128 139L126 139M130 139L131 140L130 139M146 139L146 140L150 140L146 139M387 139L388 140L387 139M135 140L135 141L140 141L135 140M385 140L386 141L385 140M388 140L389 141L388 140M103 141L104 142L103 141M105 141L106 142L105 141z"/>
<path style="fill:#010101; stroke:none;" d="M129 141L130 142L129 141z"/>
<path style="fill:#1c5c43; stroke:none;" d="M130 141L131 142L130 141M134 141L135 142L134 141M386 141L387 142L386 141M128 142L128 144L130 142L128 142M133 142L134 143L133 142M102 143L103 144L102 143M104 143L105 144L104 143M132 143L133 144L132 143M110.333 144.667L110.667 145.333L110.333 144.667z"/>
<path style="fill:#010101; stroke:none;" d="M127 144L128 145L127 144z"/>
<path style="fill:#1c5c43; stroke:none;" d="M131 144L132 145L131 144M391 144L392 145L391 144M101 145L102 146L101 145M103 145L104 146L103 145M126 145L127 146L126 145M130 145L131 146L130 145M389 145L390 146L389 145M392 145L393 146L392 145M111.333 146.667L111.667 147.333L111.333 146.667M129 146L130 147L129 146z"/>
<path style="fill:#f31916; stroke:none;" d="M186 168C182.852 181.283 176.662 193.914 172.72 207C169.446 217.867 168.051 230.724 163.348 240.999C159.911 248.509 143.446 250.622 145.478 259.985C147.003 267.013 166.023 278.031 172.772 273.971C177.211 271.302 175.928 265.141 178.314 261.228C180.709 257.3 187.86 257.106 192 257.055C204.495 256.899 196.496 273.255 208.015 274.728C214.617 275.573 220.486 269.14 225 265.271C237.561 254.505 255.945 239.15 263 224C245.892 215.403 226.902 246.098 216 257C218.736 238.475 227.848 219.144 235.15 202C237.615 196.213 239.538 186.791 244.394 182.564C251.728 176.179 278.395 184.75 280.928 172.956C284.368 156.943 257.156 163.091 250 164C251.49 157.494 245.116 145.913 237.51 152.604C233.665 155.987 234.332 162.151 229.892 165.411C225.038 168.976 217.91 167.377 213.232 171.51C204.297 179.404 217.503 184.981 224 185L202 245L182 242L193.053 205L207 163C215.396 162.827 229.838 156.188 216.956 148.009C212.171 144.971 204.374 145.514 199 146.464C191.287 147.827 172.464 150.653 167.644 157.278C159.832 168.013 180.375 169.783 186 168z"/>
<path style="fill:#1c5c43; stroke:none;" d="M390 146L391 147L390 146M100 147L101 148L100 147M102 147L103 148L102 147M128 147L129 148L128 147M109.333 148.667L109.667 149.333L109.333 148.667M122 148L123 149L122 148M127 148L128 149L127 148M394 148L395 149L394 148M99 149L100 150L99 149M101 149L102 150L101 149M126 149L127 150L126 149M392 149L393 150L392 149M110 150L111 151L110 150M121.333 150.667L121.667 151.333L121.333 150.667M125 150L126 151L125 150M100 151L101 152L100 151M104 151L103 153L104 151M108.333 151.667L108.667 152.333L108.333 151.667M124 151L125 152L124 151M160 151L160 152L163 152L160 151M396 151L397 152L396 151z"/>
<path style="fill:#01dddd; stroke:none;" d="M104 152L97 170L98 170L104 152z"/>
<path style="fill:#1c5c43; stroke:none;" d="M120 152L121 153L120 152M123 152L124 153L123 152M154 152L154 153L157 153L154 152M394 152L395 153L394 152M109 153L110 154L109 153M119 153L120 154L119 153M150.667 153.333L151.333 153.667L150.667 153.333M163 153L164 154L163 153z"/>
<path style="fill:#010101; stroke:none;" d="M175 162L196 160C192.604 176.411 184.996 192.006 180.025 208C173.826 227.95 173.984 248.638 153 258L169 268C170.529 256.647 174.155 252.813 185 250L185 249C169.801 248.946 176.162 235.32 178.884 225C183.303 208.253 190.535 192.396 196 176C199.498 165.506 200.471 156.697 213 155C205.195 149.087 182.154 156.649 175 162z"/>
<path style="fill:#1c5c43; stroke:none;" d="M97 154L98 155L97 154M102 154L103 155L102 154M104 154L105 155L104 154M107 154L108 155L107 154M144 154L144 155L147 155L144 154M162 154L163 155L162 154M398 154L399 155L398 154M139.667 155.333L140.333 155.667L139.667 155.333M160 155L161 156L160 155M396 155L397 156L396 155M96 156L97 157L96 156M98 156L99 157L98 156M101 156L102 157L101 156M103 156L104 157L103 156M106 156L107 157L106 156M117 156L118 157L117 156M120 156L121 157L120 156M135 156L136 157L135 156M149 156L149 157L152 157L149 156z"/>
<path style="fill:#010101; stroke:none;" d="M111 173C120.265 169.143 129.534 162.394 140 163L107 177L107 178L154 157C141.148 153.915 118.511 162.564 111 173z"/>
<path style="fill:#1c5c43; stroke:none;" d="M154 156L155 157L154 156M158 156L159 157L158 156M116 157L117 158L116 157M119 157L120 158L119 157M131.667 157.333L132.333 157.667L131.667 157.333M143.667 157.333L144.333 157.667L143.667 157.333M153 157L154 158L153 157M400 157L401 158L400 157M95 158L96 159L95 158M97 158L98 159L97 158M100 158L101 159L100 158M102 158L103 159L102 158M105 158L106 159L105 158M107 158L108 159L107 158M118 158L119 159L118 158M128 158L129 159L128 158M138.667 158.333L139.333 158.667L138.667 158.333M151 158L152 159L151 158M155 158L156 159L155 158M398 158L399 159L398 158M126 159L127 160L126 159M133.667 159.333L134.333 159.667L133.667 159.333M149 159L150 160L149 159M153 159L154 160L153 159z"/>
<path style="fill:#010101; stroke:none;" d="M242 159C237.366 172.581 229.383 172.196 218 177L218 178C222.099 177.665 229.416 174.559 232.068 179.232C234.766 183.987 227.788 195.484 225.85 200C218.613 216.863 208.388 236.32 208 255L209 255C213.158 234.911 221.639 214.796 229.719 196C232.378 189.816 234.488 180.106 240.213 176.005C248.475 170.087 263.343 172.22 273 171L273 170C263.031 167.055 237.92 178.354 244 159L242 159z"/>
<path style="fill:#1c5c43; stroke:none;" d="M94.3333 160.667L94.6667 161.333L94.3333 160.667M96 160L97 161L96 160M101 160L102 161L101 160M106 160L107 161L106 160M114 160L115 161L114 160M123 160L124 161L123 160M130 160L131 161L130 160M148 160L149 161L148 160M151 160L152 161L151 160M402 160L403 161L402 160M103 161L104 162L103 161M116 161L117 162L116 161M121 161L122 162L121 161M127 161L128 162L127 161M146 161L147 162L146 161M400 161L401 162L400 161M100 162L101 163L100 162M115 162L116 163L115 162M119 162L120 163L119 162M124 162L125 163L124 162M138 162L140 164L138 162M144 162L145 163L144 162M148 162L149 163L148 162M403 162L404 163L403 162M93 163L94 164L93 163M95 163L96 164L95 163M98 163L99 164L98 163M102 163L103 164L102 163M112 163L113 164L112 163M122 163L123 164L122 163M133 163L134 164L133 163z"/>
<path style="fill:#01dddd; stroke:none;" d="M111 173L111 174L139 164C130.491 160.68 118.639 169.82 111 173z"/>
<path style="fill:#1c5c43; stroke:none;" d="M142 163L143 164L142 163M146 163L147 164L146 163M401 163L402 164L401 163M99 164L100 165L99 164M116 164L117 165L116 164M120 164L121 165L120 164M129 164L130 165L129 164M137 164L138 165L137 164M145 164L146 165L145 164M94 165L95 166L94 165M101 165L102 166L101 165M111 165L112 166L111 165M113 165L114 166L113 165M115 165L116 166L115 165M118 165L119 166L118 165M127 165L128 166L127 165M135 165L136 166L135 165M143 165L144 166L143 165M405 165L406 166L405 165M92.3333 166.667L92.6667 167.333L92.3333 166.667M97 166L98 167L97 166M110 166L111 167L110 166z"/>
<path style="fill:#010101; stroke:none;" d="M113 166L114 167L113 166z"/>
<path style="fill:#1c5c43; stroke:none;" d="M117 166L118 167L117 166M124 166L125 167L124 166M132 166L133 167L132 166M137 166L138 167L137 166M142 166L143 167L142 166M403 166L404 167L403 166M98 167L99 168L98 167M100 167L101 168L100 167M112 167L113 168L112 167M115 167L116 168L115 167M122 167L123 168L122 167M129 167L130 168L129 167M135 167L136 168L135 167M140 167L141 168L140 167M406 167L407 168L406 167M93.3333 168.667L93.6667 169.333L93.3333 168.667M109 168L110 169L109 168M114 168L115 169L114 168M120 168L121 169L120 168M125.667 168.333L126.333 168.667L125.667 168.333M133 168L134 169L133 168M139 168L140 169L139 168M404 168L405 169L404 168M96 169L96 171L98 171L96 169M113 169L114 170L113 169M118 169L119 170L118 169M122.667 169.333L123.333 169.667L122.667 169.333M131 169L132 170L131 169M137 169L138 170L137 169M407 169L408 170L407 169M91 170L91 173L92 173L91 170M99 170L100 171L99 170M101 170L102 171L101 170M108 170L109 171L108 170M112 170L113 171L112 170M116 170L117 171L116 170M120 170L121 171L120 170M128.667 170.333L129.333 170.667L128.667 170.333M405 170L406 171L405 170z"/>
<path style="fill:#01dddd; stroke:none;" d="M96.3333 171.667L96.6667 172.333L96.3333 171.667z"/>
<path style="fill:#1c5c43; stroke:none;" d="M111 171L112 172L111 171M114 171L115 172L114 171M117 171L118 172L117 171M125.667 171.333L126.333 171.667L125.667 171.333M134 171L135 172L134 171M408 171L409 172L408 171M98 172L99 173L98 172M100 172L101 173L100 172M110 172L109 174L111 174L110 172M112 172L113 173L112 172M115 172L116 173L115 172M121.667 172.333L122.333 172.667L121.667 172.333M132 172L133 173L132 172M406 172L407 173L406 172M95 173L95 175L97 175L97 173L95 173M106 173L107 174L106 173M113 173L114 174L113 173M118 173L119 174L118 173M130 173L131 174L130 173M409 173L410 174L409 173M92 174L92 182L93 182L92 174M111 174L112 175L111 174M115 174L116 175L115 174M127 174L128 175L127 174M407 174L408 175L407 174z"/>
<path style="fill:#01dddd; stroke:none;" d="M95 175L95 178L96 178L95 175z"/>
<path style="fill:#1c5c43; stroke:none;" d="M97.3333 175.667L97.6667 176.333L97.3333 175.667M99 175L100 176L99 175M105 175L106 176L105 175M109 175L110 176L109 175M112 175L113 176L112 175M123 175L124 176L123 175M410 175L411 176L410 175M107 176L108 177L107 176M110 176L111 177L110 176M119.667 176.333L120.333 176.667L119.667 176.333M408 176L409 177L408 176M104 177L105 178L104 177M106.333 177.667L106.667 178.333L106.333 177.667M108 177L109 178L108 177M116 177L117 178L116 177M411 177L412 178L411 177M94.6667 178.333L95.3333 178.667L94.6667 178.333M98.3333 178.667L98.6667 179.333L98.3333 178.667M114 178L115 179L114 178M409 178L410 179L409 178M96.3333 179.667L96.6667 180.333L96.3333 179.667M103 179L104 180L103 179M111 179L112 180L111 179M412 179L413 180L412 179M109 180L110 181L109 180M410 180L411 181L410 180M102 181L103 182L102 181M107 181L108 182L107 181M97.3333 182.667L97.6667 183.333L97.3333 182.667M104 182L105 183L104 182M413 182L414 183L413 182M101 183L102 184L101 183z"/>
<path style="fill:#01dddd; stroke:none;" d="M82 240C107.056 229.569 131.987 209.031 142 183C136.316 185.155 132.091 189.339 127 192.537C109.903 203.275 87.8831 219.617 82 240z"/>
<path style="fill:#1c5c43; stroke:none;" d="M411 183L412 184L411 183M71.3333 184.667L71.6667 185.333L71.3333 184.667M91 184L91 187L92 187L91 184M95 184L95 187L96 187L95 184M138 184L139 185L138 184M414 184L415 185L414 184M100 185L101 186L100 185M141 185L142 186L141 185M412 185L413 186L412 185z"/>
<path style="fill:#01dddd; stroke:none;" d="M71 186L71 189L72 189L71 186z"/>
<path style="fill:#1c5c43; stroke:none;" d="M74 186L78 199L79 199L74 186M93.3333 186.667L93.6667 187.333L93.3333 186.667M135 186L136 187L135 186M140 186L141 187L140 186M96 187L96 194L97 194L96 187M99 187L100 188L99 187M415 187L416 188L415 187M117 188L117 189L120 189L120 188L117 188z"/>
<path style="fill:#01dddd; stroke:none;" d="M118 188L119 189L118 188z"/>
<path style="fill:#1c5c43; stroke:none;" d="M132 188L133 189L132 188M413 188L414 189L413 188M71 189L71 197L72 197L71 189M92.3333 189.667L92.6667 190.333L92.3333 189.667M98 189L99 190L98 189M115 189L115 192L116 192L115 189z"/>
<path style="fill:#01dddd; stroke:none;" d="M116.667 189.333L117.333 189.667L116.667 189.333z"/>
<path style="fill:#1c5c43; stroke:none;" d="M131 189L132 190L131 189z"/>
<path style="fill:#010101; stroke:none;" d="M135 189C117.408 199.817 97.3758 214.789 87 233C98.8182 224.708 108.884 210.506 123 206L99 224.662L86 234L86 235L88 236C102.182 225.689 116.198 217.424 126.844 203C129.766 199.042 134.415 193.936 135 189z"/>
<path style="fill:#1c5c43; stroke:none;" d="M416 189L417 190L416 189M113 190L114 191L113 190z"/>
<path style="fill:#01dddd; stroke:none;" d="M100 203L116 191C109.665 190.082 103.277 198.348 100 203z"/>
<path style="fill:#1c5c43; stroke:none;" d="M130 190L131 191L130 190M135 190L136 191L135 190M137 190L138 191L137 190M414 190L415 191L414 190M94 191L95 192L94 191M111 191L112 192L111 191M134 191L135 192L134 191M110 192L111 193L110 192M113 192L114 193L113 192M127 192L128 193L127 192M129 192L130 193L129 192M417 192L418 193L417 192M93 193L94 194L93 193M98 193L99 194L98 193M125 193L126 194L125 193M133 193L134 194L133 193M135 193L136 194L135 193M415 193L416 194L415 193M107 194L108 195L107 194M110 194L111 195L110 194M123 194L124 195L123 194M132 194L133 195L132 194M134 194L135 195L134 194M94 195L95 196L94 195M97 195L98 196L97 195M106 195L107 196L106 195M109 195L110 196L109 195M418 195L419 196L418 195M105 196L106 197L105 196M120 196L121 197L120 196M124 196L125 197L124 196M131 196L132 197L131 196M133 196L134 197L133 196M416 196L417 197L416 196M96 197L97 198L96 197M104 197L105 198L104 197M106 197L107 198L106 197M119 197L120 198L119 197M123 197L124 198L123 197M130 197L131 198L130 197M103 198L104 199L103 198M105 198L106 199L105 198M419 198L420 199L419 198M95 199L96 200L95 199M102 199L103 200L102 199M116 199L117 200L116 199M120 199L121 200L120 199M129 199L130 200L129 199M131 199L132 200L131 199M417 199L418 200L417 199M93 200L94 201L93 200M101 200L102 201L101 200M115 200L116 201L115 200M119 200L120 201L119 200M128 200L129 201L128 200M94 201L95 202L94 201M100 201L101 202L100 201M420 201L421 202L420 201M72 202L72 208L73 208L72 202M92 202L93 203L92 202M99 202L98 204L100 204L99 202M112 202L113 203L112 202M116 202L117 203L116 202M129 202L130 203L129 202M418.333 202.667L418.667 203.333L418.333 202.667M111 203L112 204L111 203M115 203L116 204L115 203M126 203L127 204L126 203M91 204L92 205L91 204M93 204L94 205L93 204z"/>
<path style="fill:#01dddd; stroke:none;" d="M98 204L99 205L98 204z"/>
<path style="fill:#1c5c43; stroke:none;" d="M110 204L111 205L110 204M125 204L126 205L125 204M128 204L129 205L128 204z"/>
<path style="fill:#01dddd; stroke:none;" d="M97 205L98 206L97 205z"/>
<path style="fill:#1c5c43; stroke:none;" d="M112 205L113 206L112 205M127 205L128 206L127 205M421 205L422 206L421 205M80 206L80 209L81 209L80 206M92 206L93 207L92 206M95 209L98 206L95 209M111 206L112 207L111 206M120 206L121 207L120 206z"/>
<path style="fill:#01dddd; stroke:none;" d="M121 206C110.505 213.081 98.3866 220.521 91 231L114 213.975L121 206z"/>
<path style="fill:#1c5c43; stroke:none;" d="M122 206L123 207L122 206M419 206L420 207L419 206M76 207L75 215L76 215L76 207M90 207L91 208L90 207M106 207L107 208L106 207M118 207L119 208L118 207M123 207L124 208L123 207M105 208L106 209L105 208M117 208L118 209L117 208M122 208L123 209L122 208M125 208L126 209L125 208M422.333 208.667L422.667 209.333L422.333 208.667M71 209L71 215L72 215L71 209z"/>
<path style="fill:#01dddd; stroke:none;" d="M80 209L80 218L81 218L80 209z"/>
<path style="fill:#1c5c43; stroke:none;" d="M89 209L90 210L89 209M94 209L95 210L94 209M104 209L105 210L104 209M107 209L108 210L107 209M115 209L116 210L115 209M121 209L122 210L121 209M124 209L125 210L124 209M420.333 209.667L420.667 210.333L420.333 209.667M103 210L104 211L103 210M106 210L107 211L106 210M114 210L115 211L114 210M118 210L119 211L118 210M120 210L121 211L120 210z"/>
<path style="fill:#01dddd; stroke:none;" d="M76 211L76 217L77 217L76 211z"/>
<path style="fill:#1c5c43; stroke:none;" d="M90 211L91 212L90 211M102 211L103 212L102 211M105 211L106 212L105 211M117 211L118 212L117 211M119 211L120 212L119 211M73 212L73 216L74 216L73 212M101 212L102 213L101 212M104 212L105 213L104 212M111 212L112 213L111 212M118 212L119 213L118 212M122 212L123 213L122 212M423.333 212.667L423.667 213.333L423.333 212.667M89 213L90 214L89 213M100 213L101 214L100 213M103 213L104 214L103 213M110 213L111 214L110 213M114 213L115 214L114 213M121 213L122 214L121 213M87 214L88 215L87 214M99 214L100 215L99 214M120 214L121 215L120 214M421.333 214.667L421.667 215.333L421.333 214.667M98 215L99 216L98 215M107 215L108 216L107 215M111 215L112 216L111 215M119 215L120 216L119 215M86 216L87 217L86 216M88 216L89 217L88 216M97 216L98 217L97 216M106 216L107 217L106 216M110 216L111 217L110 216M118 216L119 217L118 216M76 217L77 222L78 222L78 217L76 217M96 217L97 218L96 217M108 217L109 218L108 217M113 217L114 218L113 217M117 217L118 218L117 217M424.333 217.667L424.667 218.333L424.333 217.667M80 218L80 232L81 232L80 218M95 218L96 219L95 218M98 218L99 219L98 218M107 218L108 219L107 218M112 218L113 219L112 218M116 218L117 219L116 218M422 218L422 221L423 221L422 218M72 219L72 222L73 222L72 219M74 219L74 222L75 222L74 219M85 219L86 220L85 219M87 219L88 220L87 219M94 219L95 220L94 219M97 219L98 220L97 219M102 219L103 220L102 219M111 219L112 220L111 219M115 219L116 220L115 219M96 220L97 221L96 220M101 220L102 221L101 220M104 220L105 221L104 220M110 220L111 221L110 220M114 220L115 221L114 220M84.3333 221.667L84.6667 222.333L84.3333 221.667M86 221L87 222L86 221M95 221L96 222L95 221M100 221L101 222L100 221M103 221L104 222L103 221M113 221L114 222L113 221M94 222L95 223L94 222M107 222L108 223L107 222M91 223L92 224L91 223M93 223L94 224L93 223M100 223L101 224L100 223M106 223L107 224L106 223M425.333 223.667L425.667 224.333L425.333 223.667M83.3333 224.667L83.6667 225.333L83.3333 224.667M85 224L86 225L85 224M90 224L91 225L90 224M99 224L100 225L99 224M109 224L110 225L109 224M423 224L423 227L424 227L423 224M73.3333 225.667L73.6667 226.333L73.3333 225.667M75.3333 225.667L75.6667 226.333L75.3333 225.667M103 225L104 226L103 225M108 225L109 226L108 225M91 226L92 227L91 226M94 226L95 227L94 226M102 226L103 227L102 226M106 226L107 227L106 226M82 227L83 228L82 227M84 227L85 228L84 227M88 227L89 228L88 227M90 227L91 228L90 227M93 227L94 228L93 227M95 227L96 228L95 227M100 227L101 228L100 227M105 227L106 228L105 227M87 228L88 229L87 228M92 228L93 229L92 228M94 228L95 229L94 228M99 228L100 229L99 228M103 228L104 229L103 228M91 229L92 230L91 229M93 229L94 230L93 229M97 229L98 230L97 229M102 229L103 230L102 229M74.3333 230.667L74.6667 231.333L74.3333 230.667M76 230L76 233L77 233L76 230M83 230L84 231L83 230M86 230L87 231L86 230M88 230L89 231L88 230M90 230L86 234L90 230M96 230L97 231L96 230M100 230L101 231L100 230M426 230L426 233L427 233L426 230M94 231L95 232L94 231M97 232L98 233L97 232M424 232L424 235L425 235L424 232M80 233L81 234L80 233M82 233L83 234L82 233M84 233L85 234L84 233M91 233L92 234L91 233M95 233L96 234L95 233M89 234L90 235L89 234M93 234L94 235L93 234M75 235L75 238L76 238L75 235M83 235L84 236L83 235M85 235L85 237L87 237L87 235L85 235M91 235L92 236L91 235M77 236L77 242L78 242L77 236M79 236L80 237L79 236M81 236L83 238L81 236M89 236L90 237L89 236z"/>
<path style="fill:#010101; stroke:none;" d="M81.3333 237.667L81.6667 238.333L81.3333 237.667z"/>
<path style="fill:#1c5c43; stroke:none;" d="M87 237L88 238L87 237M85 238L86 239L85 238M80 239L82 241L82 239L80 239M83 239L84 240L83 239M427 240L427 247L428 247L427 240M76 242L76 247L77 247L76 242M79.3333 242.667L79.6667 243.333L79.3333 242.667M425 244L425 263L426 263L425 244M78 246L79 247L78 246M75 249L76 250L75 249M77.3333 249.667L77.6667 250.333L77.3333 249.667M74.3333 252.667L74.6667 253.333L74.3333 252.667M76 253L77 254L76 253M73.3333 256.667L73.6667 257.333L73.3333 256.667M75.3333 256.667L75.6667 257.333L75.3333 256.667z"/>
<path style="fill:#010101; stroke:none;" d="M207.333 257.667L207.667 258.333L207.333 257.667z"/>
<path style="fill:#1c5c43; stroke:none;" d="M74 260L74 263L75 263L74 260M427 260L427 267L428 267L427 260M72 261L72 265L73 265L72 261z"/>
<path style="fill:#010101; stroke:none;" d="M208 266L210 268L208 266z"/>
<path style="fill:#1c5c43; stroke:none;" d="M347 266L347 267L357 267L347 266M73 267L72 273L73 267M342 267L343 268L342 267z"/>
<path style="fill:#f3e101; stroke:none;" d="M318 343C311.65 341.001 304.405 338.349 298.04 341.988C288.17 347.633 288.11 363.321 296.39 370.436C306.971 379.527 317.235 364.008 326.285 364.356C340.402 364.9 353.116 362.875 364.999 353.482C389.084 334.444 398.056 293.195 371.816 271.939C352.087 255.959 315.995 274.632 315.133 299C314.8 308.397 322.206 314.5 323.478 323C324.424 329.329 319.075 336.754 318 343z"/>
<path style="fill:#1c5c43; stroke:none;" d="M361.667 267.333L362.333 267.667L361.667 267.333M338.667 268.333L339.333 268.667L338.667 268.333M365 268L366 269L365 268M250 269L251 270L250 269z"/>
<path style="fill:#f3e101; stroke:none;" d="M232 292C229.145 298.45 230.824 303.572 229.453 310C227.942 317.082 223.155 327.608 219.583 333.995C216.171 340.098 204.38 339.756 203.662 347.001C203.374 349.91 205.844 351.656 206.731 354.17C208.433 358.995 205.314 367.461 213.015 368.573C216.815 369.122 219.675 364.738 223.285 365.963C227.52 367.399 230.373 370.922 235 371.825C249.867 374.725 270.152 364.834 275.146 350C277.988 341.556 273.606 333.768 271 326C282.861 320.469 295.572 302.697 293.866 289C291.717 271.751 271.36 272.951 260 279C259.021 261.139 244.173 275.098 236 277.491C231.448 278.823 225.202 277.521 221.743 281.572C215.4 289 226.882 291.954 232 292z"/>
<path style="fill:#1c5c43; stroke:none;" d="M254.667 269.333L255.333 269.667L254.667 269.333M336 269L337 270L336 269M424 270L424 274L425 274L424 270M246 271L247 272L246 271M258 271L259 272L258 271M333 271L334 272L333 271M343 271L343 272L346 272L343 271z"/>
<path style="fill:#010101; stroke:none;" d="M346 271.44C340.714 272.291 337.048 274.444 333 277.873C326.224 283.614 320.285 289.584 319.751 299C319.247 307.869 325.659 313.114 327.693 321C329.289 327.19 324.795 337.643 321.725 342.977C316.218 352.548 301.947 338.373 295.921 351.005C292.555 358.06 296.559 368.184 305.004 367.956C313.167 367.735 316.898 361.454 324 359.784C327.995 358.845 331.881 361.93 336 361.389C354.135 359.008 371.088 345.417 378.584 329C390.003 303.991 379.117 266.106 346 271.44z"/>
<path style="fill:#1c5c43; stroke:none;" d="M358 271L358 272L361 272L358 271M371 271L372 272L371 271M244 272L245 273L244 272M332 272L333 273L332 272M340 272L341 273L340 272M363.667 272.333L364.333 272.667L363.667 272.333M372 272L373 273L372 272M426 272L426 276L427 276L426 272z"/>
<path style="fill:#01dddd; stroke:none;" d="M73 273L74 274L73 273z"/>
<path style="fill:#1c5c43; stroke:none;" d="M243 273L244 274L243 273M252.667 273.333L253.333 273.667L252.667 273.333M259 273L260 274L259 273M331 273L332 274L331 273M338 273L339 274L338 273M366 273L367 274L366 273M73 274L74 275L73 274M241 274L242 275L241 274M249 274L250 275L249 274z"/>
<path style="fill:#010101; stroke:none;" d="M224 286L236 287C236.726 307.9 229.534 339.157 208 346L213 365L214 365C222.883 356.23 224.462 363.381 234 367.005C239.248 369 245.898 368.076 251 366.073C260.287 362.428 273.174 353.349 271.696 342C271.14 337.729 265.331 329.272 267.022 325.59C272.335 314.016 295.163 304.868 289.269 288.004C282.506 268.655 255.588 292.105 255 274L237 282.005L224 286z"/>
<path style="fill:#1c5c43; stroke:none;" d="M271 274L271 275L274 275L271 274M277 274L277 275L281 275L277 274M355 274L355 275L359 275L355 274z"/>
<path style="fill:#f3e101; stroke:none;" d="M348 288C347.246 296.636 343.357 305.198 339.782 313C338.25 316.342 336.594 320.442 340.243 323.062C345.739 327.008 353.772 323.376 360 326C352.442 329.189 345.366 325.433 338.015 327.573C329.196 330.141 319.184 357.425 336 355.83C366.319 352.956 386.129 310.712 370.347 286C368.311 282.812 366.837 278.266 363.66 276.024C349.867 266.293 318.308 291.331 327.318 306.851C329.603 310.787 333.575 309.398 335.431 305.941C339.793 297.817 336.08 289.082 348 288z"/>
<path style="fill:#1c5c43; stroke:none;" d="M361 274L362 275L361 274M374 274L375 275L374 274M240 275L241 276L240 275M255 275L255 281L256 281L255 275M267 275L268 276L267 275M283 275L284 276L283 275M348 275L348 276L351 276L348 275M363 275L364 276L363 275M369 275L370 276L369 275M375 275L376 276L375 275M238 276L239 277L238 276M246 276L247 277L246 276M265 276L266 277L265 276M285 276L286 277L285 276M334 276L335 277L334 276M345 276L346 277L345 276M370 276L371 277L370 276M237 277L238 278L237 277M262 277L263 278L262 277M286 277L287 278L286 277M326 277L327 278L326 277M333 277L334 278L333 277M343 277L344 278L343 277M365 277L366 278L365 277M371 277L372 278L371 277M376 277L377 278L376 277M226 278L226 279L229 279L226 278M243 278L244 279L243 278M260 278L261 279L260 278M274 278L274 279L278 279L274 278M325 278L326 279L325 278M332 278L333 279L332 278M342 278L343 279L342 278M358 278L358 279L363 281L358 278M423.333 278.667L423.667 279.333L423.333 278.667M223 279L224 280L223 279M269 279L270 280L269 279M281 279L282 280L281 279M324 279L325 280L324 279M331 279L332 280L331 279M351 279L351 280L354 280L351 279z"/>
<path style="fill:#010101; stroke:none;" d="M343 283L343 284C361.763 283.246 344.412 311.564 342 320C345.867 320 372.186 320.185 361.833 329.566C355.881 334.959 346.168 330.203 339.228 332.318C334.449 333.774 331.459 347.51 331 352C354.643 349.012 372.426 326.936 372.87 303C373.188 285.922 357.69 274.77 343 283z"/>
<path style="fill:#1c5c43; stroke:none;" d="M425 279L425 282L426 282L425 279M222 280L223 281L222 280M240 280L241 281L240 280M266 280L267 281L266 280M283 280L284 281L283 280M323 280L324 281L323 280M339 280L340 281L339 280M347 280L348 281L347 280M373 280L374 281L373 280M378 280L379 281L378 280M238 281L239 282L238 281M264 281L265 282L264 281M284 281L285 282L284 281M290 281L291 282L290 281M322 281L323 282L322 281M338 281L339 282L338 281M345 281L346 282L345 281M367 281L368 282L367 281M220 282L221 283L220 282M228 282L228 283L237 283L228 282M257.667 282.333L258.333 282.667L257.667 282.333M261.667 282.333L262.333 282.667L261.667 282.333M291 282L292 283L291 282M321 282L322 283L321 282M337 282L338 283L337 282M363.333 282.667L363.667 283.333L363.333 282.667M374 282L375 283L374 282M379 282L380 283L379 282M225 283L226 284L225 283M286 283L287 284L286 283M320 283L321 284L320 283M326 283L327 284L326 283M345 283L346 284L345 283M368 283L369 284L368 283M380 283L381 284L380 283M219 284L219 287L220 287L219 284M224 284L225 285L224 284M287 284L288 285L287 284M292 284L293 285L292 284M325 284L326 285L325 284M348 284L349 285L348 284M375 284L376 285L375 284M422.333 284.667L422.667 285.333L422.333 284.667M267 285L268 286L267 285M293 285L294 286L293 285M319 285L320 286L319 285M324 285L325 286L324 285M350 285L351 286L350 285M376 285L377 286L376 285M381 285L382 286L381 285M424.333 285.667L424.667 286.333L424.333 285.667M224 286L225 287L224 286M262 286L263 287L262 286z"/>
<path style="fill:#f3e101; stroke:none;" d="M263 286.533C253.643 288.716 244.678 297.998 241.786 307C238.534 317.125 244.69 323.681 255 321.319C263.832 319.296 274.527 312.791 277.856 304C281.595 294.125 273.43 284.1 263 286.533z"/>
<path style="fill:#1c5c43; stroke:none;" d="M270 286L271 287L270 286M351 286L352 287L351 286M365 286L366 287L365 286M370 286L371 287L370 286M382 286L383 287L382 286M226 287L227 288L226 287M231.667 287.333L232.333 287.667L231.667 287.333M235 287L236 288L235 287M289 287L290 288L289 287M220 288L221 289L220 288M274 288L275 289L274 288M294 288L294 293L295 293L294 288M322 288L323 289L322 288M343 288L344 289L343 288M346.667 288.333L347.333 288.667L346.667 288.333M352 288L353 289L352 288M366 288L367 289L366 288M378 288L379 289L378 288M256 289L257 290L256 289M275 289L276 290L275 289M317 289L318 290L317 289M330 289L331 290L330 289M340 289L341 290L340 289M372 289L373 290L372 289M379 289L380 290L379 289M384 289L385 290L384 289M421.333 289.667L421.667 290.333L421.333 289.667M222 290L223 291L222 290M254 290L255 291L254 290M264.667 290.333L265.333 290.667L264.667 290.333z"/>
<path style="fill:#010101; stroke:none;" d="M266 290.657C257.982 291.09 250.385 299.368 246.919 306C244.478 310.67 244.047 317.507 251.005 317.372C259.018 317.216 269.221 311.189 272.821 304C275.66 298.33 273.309 290.263 266 290.657z"/>
<path style="fill:#1c5c43; stroke:none;" d="M268.667 290.333L269.333 290.667L268.667 290.333M276 290L277 291L276 290M329 290L330 291L329 290M339 290L340 291L339 290M352.333 290.667L352.667 291.333L352.333 290.667M373 290L374 291L373 290M423.333 290.667L423.667 291.333L423.333 290.667M224 291L225 292L224 291M236 291L237 292L236 291M253 291L254 292L253 291M261 291L262 292L261 291M321 291L322 292L321 291M338 291L338 295L339 295L338 291M368 291L369 292L368 291M380 291L381 292L380 291M228 292L229 293L228 292M231 292L232 293L231 292M259 292L260 293L259 292M277 292L278 293L277 292M316 292L317 293L316 292M328 292L329 293L328 292M333 292L334 293L333 292M347 292L348 293L347 292M369 292L370 293L369 292M374 292L375 293L374 292M381 292L382 293L381 292M386 292L387 293L386 292M258 293L259 294L258 293M320.333 293.667L320.667 294.333L320.333 293.667z"/>
<path style="fill:#010101; stroke:none;" d="M333 293L331 304L332 304L333 293z"/>
<path style="fill:#1c5c43; stroke:none;" d="M351.333 293.667L351.667 294.333L351.333 293.667M420.333 293.667L420.667 294.333L420.333 293.667M235 294L236 295L235 294M256 294L257 295L256 294M278.333 294.667L278.667 295.333L278.333 294.667M289 294L290 295L289 294M346.333 294.667L346.667 295.333L346.333 294.667M370 294L371 295L370 294M375 294L376 295L375 294M382 294L383 295L382 294M422.333 294.667L422.667 295.333L422.333 294.667M230 295L231 296L230 295M255 295L256 296L255 295M315 295L316 296L315 295M331 295L332 296L331 295M371 295L372 296L371 295M387 295L388 296L387 295M79 296L80 297L79 296M82 296L83 297L82 296M254 296L255 297L254 296M274 296L274 302L275 302L274 296M293 296L294 297L293 296M326 296L327 297L326 296M333 296L333 299L334 299L333 296M350 296L351 297L350 296M376 296L377 297L376 296M83 297L84 298L83 297M234 297L235 298L234 297M247 297L248 298L247 297M253 297L254 298L253 297M288.333 297.667L288.667 298.333L288.333 297.667M319.333 297.667L319.667 298.333L319.333 297.667M383 297L384 298L383 297M419 297L420 298L419 297M77.3333 298.667L77.6667 299.333L77.3333 298.667M229 298L230 299L229 298M246 298L247 299L246 298M330.333 298.667L330.667 299.333L330.333 298.667M345 298L346 299L345 298M372 298L373 299L372 298M388 298L388 309L389 309L388 298M421.333 298.667L421.667 299.333L421.333 298.667M245 299L246 300L245 299M251 299L252 300L251 299M292 299L293 300L292 299M337.333 299.667L337.667 300.333L337.333 299.667M377 299L377 305L378 305L377 299M233 300L233 305L234 305L233 300M250 300L251 301L250 300M287 300L288 301L287 300M319 300L319 303L320 303L319 300M349 300L350 301L349 300M418.333 300.667L418.667 301.333L418.333 300.667M78 301L79 302L78 301M83 301L84 302L83 301M244 301L245 302L244 301M344 301L345 302L344 301M79.6667 302.333L80.3333 302.667L79.6667 302.333M278.333 302.667L278.667 303.333L278.333 302.667M291 302L292 303L291 302M330 302L332 305L330 302M332 302L333 303L332 302M420 302L421 303L420 302M83.3333 303.667L83.6667 304.333L83.3333 303.667M248 303L249 304L248 303M273 303L274 304L273 303M315.333 303.667L315.667 304.333L315.333 303.667M336.333 303.667L336.667 304.333L336.333 303.667M348 303L349 304L348 303M384 303L385 304L384 303M81.3333 304.667L81.6667 305.333L81.3333 304.667M229 304L229 311L230 311L229 304M242 304L243 305L242 304M247 304L248 305L247 304M285 304L286 305L285 304M290 304L291 305L290 304M343 304L344 305L343 304M417 304L418 305L417 304M272 305L273 306L272 305M277 305L278 306L277 305M326 305L327 306L326 305M419 305L420 306L419 305M84.3333 306.667L84.6667 307.333L84.3333 306.667M246 306L247 307L246 306M271 306L272 307L271 306M284 306L285 307L284 306M289 306L290 307L289 306M320 306L321 307L320 306M335 306L336 307L335 306M347 306L348 307L347 306M372 306L372 309L373 309L372 306M82.3333 307.667L82.6667 308.333L82.3333 307.667M241 307L242 308L241 307M270 307L271 308L270 307M316 307L317 308L316 307M342 307L343 308L342 307M416 307L417 308L416 307M245 308L246 309L245 308M269 308L270 309L269 308M275 308L276 309L275 308M288 308L289 309L288 308M321 308L322 309L321 308M327 308L328 309L327 308M334 308L335 309L334 308M346 308L347 309L346 308M418 308L419 309L418 308M85.3333 309.667L85.6667 310.333L85.3333 309.667M240 309L240 313L241 313L240 309M268 309L269 310L268 309M274 309L275 310L274 309M282 309L283 310L282 309M328 309L329 310L328 309M333 309L334 310L333 309M341 309L342 310L341 309M376.333 309.667L376.667 310.333L376.333 309.667M83 310L84 311L83 310M281 310L282 311L281 310M317 310L318 311L317 310M329 310L329 311L332 311L329 310M383 310L383 313L384 313L383 310M415 310L416 311L415 310M233.333 311.667L233.667 312.333L233.333 311.667M286 311L287 312L286 311M322 311L323 312L322 311M340 311L341 312L340 311M417 311L418 312L417 311M86 312L87 313L86 312M244.333 312.667L244.667 313.333L244.333 312.667M264 312L265 313L264 312M271 312L272 313L271 312M285 312L286 313L285 312M371.333 312.667L371.667 313.333L371.333 312.667M387 312L387 315L388 315L387 312M84 313L85 314L84 313M228 313L229 314L228 313M262 313L263 314L262 313M270 313L271 314L270 313M339 313L340 314L339 313M344 313L345 314L344 313M414 313L415 314L414 313M240.333 314.667L240.667 315.333L240.333 314.667M269 314L270 315L269 314M319 314L320 315L319 314M324 314L325 315L324 314M375.333 314.667L375.667 315.333L375.333 314.667M416 314L417 315L416 314M87 315L88 316L87 315M227 315L228 316L227 315M232 315L233 316L232 315M267 315L268 316L267 315M283 315L284 316L283 315M338 315L339 316L338 315M343 315L344 316L343 315M382.333 315.667L382.667 316.333L382.333 315.667M413 315L414 316L413 315M85 316L86 317L85 316M256 316L257 317L256 316M266 316L267 317L266 316M282 316L283 317L282 316M320 316L321 317L320 316M370.333 316.667L370.667 317.333L370.333 316.667M415 316L416 317L415 316M88 317L89 318L88 317M231 317L232 318L231 317M247.667 317.333L248.333 317.667L247.667 317.333M251 317L251 318L254 318L251 317M264 317L265 318L264 317M281 317L282 318L281 317M326 317L327 318L326 317M337.333 317.667L337.667 318.333L337.333 317.667M342 317L343 318L342 317M386.333 317.667L386.667 318.333L386.333 317.667M86 318L87 319L86 318M225 318L226 319L225 318M230 318L231 319L230 318M262 318L263 319L262 318M280 318L281 319L280 318M374.333 318.667L374.667 319.333L374.333 318.667M412 318L413 319L412 318M242 319L243 320L242 319M260 319L261 320L260 319M279 319L280 320L279 319M322 319L323 320L322 319M327 319L328 320L327 319M341 319L342 320L341 319M381 319L382 320L381 319M414 319L415 320L414 319M89 320L90 321L89 320M224 320L225 321L224 320M229 320L230 321L229 320M243 320L244 321L243 320M258 320L259 321L258 320M278 320L279 321L278 320M337.333 320.667L337.667 321.333L337.333 320.667M343 320L343 321L352 321L343 320M356 320L356 321L359 321L356 320M369 320L370 321L369 320M411 320L412 321L411 320M87 321L88 322L87 321M245 321L246 322L245 321M254.667 321.333L255.333 321.667L254.667 321.333M270 321L271 322L270 321M277 321L278 322L277 321M323 321L324 322L323 321M361 321L362 322L361 321M380 321L380 324L381 324L380 321M413 321L414 322L413 321M90 322L91 323L90 322M228 322L229 323L228 322M269 322L270 323L269 322M276 322L277 323L276 322M328.333 322.667L328.667 323.333L328.333 322.667M338 322L339 323L338 322M373 322L374 323L373 322M88 323L89 324L88 323M223 323L224 324L223 323M268 323L269 324L268 323M275 323L276 324L275 323M339 323L340 324L339 323M368 323L369 324L368 323M384 323L384 327L385 327L384 323M412 323L413 324L412 323M91 324L92 325L91 324M227 324L228 325L227 324M267 324L268 325L267 324M341 324L341 325L344 325L341 324M350 324L350 325L357 325L350 324M364 324L364 328L365 328L364 324M372 324L373 325L372 324M89 325L90 326L89 325M323.333 325.667L323.667 326.333L323.333 325.667M359 325L360 326L359 325M367 325L368 326L367 325M92 326L93 327L92 326M222 326L223 327L222 326M265 326L266 327L265 326M271 326L272 327L271 326M90 327L91 328L90 327M327 327L328 328L327 327M336.667 327.333L337.333 327.667L336.667 327.333M345 327L345 328L357 328L345 327M379 327L380 328L379 327M408 327L409 328L408 327M93 328L94 329L93 328M226 328L227 329L226 328M266 328L267 329L266 328M271 328L272 329L271 328M322 328L323 329L322 328M365 328L366 329L365 328M370 328L371 329L370 328M410 328L411 329L410 328M91 329L92 330L91 329M221 329L222 330L221 329M333 329L334 330L333 329M378 329L379 330L378 329M383 329L384 330L383 329M407 329L408 330L407 329M94 330L95 331L94 330M238 330L238 331L252 331L238 330z"/>
<path style="fill:#f3e101; stroke:none;" d="M252 330.464C247.197 330.874 238.158 329.415 234.703 333.318C228.151 340.719 228.111 361.255 241 360.867C249.37 360.615 259.063 354.62 262.583 346.996C266.534 338.438 261.719 329.633 252 330.464z"/>
<path style="fill:#1c5c43; stroke:none;" d="M256 330L256 331L259 331L256 330M326 330L327 331L326 330M361 330L362 331L361 330M369 330L370 331L369 330M409 330L410 331L409 330M92 331L93 332L92 331M225 331L226 332L225 331M235 331L236 332L235 331M268 331L269 332L268 331M321 331L322 332L321 331M332 331L333 332L332 331M338 331L338 332L347 332L338 331M357 331L357 332L360 332L357 331M363 331L364 332L363 331M382 331L383 332L382 331M406 331L407 332L406 331M95 332L96 333L95 332M220 332L221 333L220 332M234 332L235 333L234 332M261 332L262 333L261 332M273 332L274 333L273 332M362 332L363 333L362 332M376 332L377 333L376 332M381 332L382 333L381 332M408 332L409 333L408 332M93 333L94 334L93 333M262 333L263 334L262 333M325 333L326 334L325 333M336 333L337 334L336 333M361 333L362 334L361 333M367 333L368 334L367 333M96 334L97 335L96 334M219 334L220 335L219 334M224 334L225 335L224 334M233 334L234 335L233 334M251 334L251 335L257 335L251 334M274 334L275 335L274 334M320 334L321 335L320 334M331.333 334.667L331.667 335.333L331.333 334.667M366 334L367 335L366 334M380 334L381 335L380 334M404 334L405 335L404 334M94 335L95 336L94 335z"/>
<path style="fill:#010101; stroke:none;" d="M238.564 336.028C234.731 338.86 232.814 352.892 237.318 355.667C241.602 358.308 248.455 354.899 251.999 352.362C268.744 340.372 250.364 327.309 238.564 336.028z"/>
<path style="fill:#1c5c43; stroke:none;" d="M324.333 335.667L324.667 336.333L324.333 335.667M365 335L366 336L365 335M374 335L375 336L374 335M97 336L98 337L97 336M218 336L219 337L218 336M223 336L224 337L223 336M232.333 336.667L232.667 337.333L232.333 336.667M263 336L264 337L263 336M270 336L271 337L270 336M335.333 336.667L335.667 337.333L335.333 336.667M403 336L404 337L403 336M95 337L96 338L95 337M217 337L218 338L217 337M259.333 337.667L259.667 338.333L259.333 337.667M275.333 337.667L275.667 338.333L275.333 337.667M319 337L320 338L319 337M358 337L359 338L358 337M378 337L379 338L378 337M405 337L406 338L405 337M98 338L99 339L98 338M216 338L217 339L216 338M222 338L223 339L222 338M236.333 338.667L236.667 339.333L236.333 338.667M323 338L324 339L323 338M330.333 338.667L330.667 339.333L330.333 338.667M357 338L358 339L357 338M363 338L364 339L363 338M372 338L373 339L372 338M402 338L403 339L402 338M96 339L97 340L96 339M215 339L216 340L215 339M221 339L222 340L221 339M271.333 339.667L271.667 340.333L271.333 339.667M318 339L319 340L318 339M362 339L363 340L362 339M371 339L372 340L371 339M404 339L405 340L404 339M209 340L210 341L209 340M231.333 340.667L231.667 341.333L231.333 340.667M300 340L300 341L303 341L300 340M309 340L309 341L312 341L309 340M334 340L335 341L334 340M361 340L362 341L361 340M376 340L377 341L376 340M100 341L101 342L100 341M207 341L208 342L207 341M322 341L323 342L322 341M329 341L330 342L329 341M355 341L356 342L355 341M360 341L361 342L360 341M375 341L376 342L375 341M400 341L401 342L400 341M403 341L404 342L403 341M98 342L99 343L98 342M235.333 342.667L235.667 343.333L235.333 342.667M276 342L276 347L277 347L276 342M296 342L297 343L296 342M315 342L316 343L315 342M317 342L318 343L317 342M354 342L355 343L354 342M369 342L370 343L369 342M101 343L102 344L101 343M217 343L218 344L217 343M259.333 343.667L259.667 344.333L259.333 343.667M295 343L296 344L295 343M321.333 343.667L321.667 344.333L321.333 343.667M333 343L334 344L333 343M352 343L353 344L352 343M368 343L369 344L368 343M399 343L400 344L399 343M99 344L100 345L99 344M211.667 344.333L212.333 344.667L211.667 344.333M294 344L295 345L294 344M302 344L302 345L309 345L302 344M350 344L351 345L350 344M358 344L359 345L358 344M367 344L368 345L367 344M373 344L374 345L373 344M401 344L402 345L401 344M203 345L204 346L203 345M209 345L210 346L209 345M230 345L230 354L231 354L230 345M263 345L264 346L263 345M312 345L313 346L312 345M332 345L333 346L332 345M357 345L358 346L357 345M372 345L373 346L372 345M103 346L104 347L103 346M293 346L294 347L293 346M347 346L348 347L347 346M356 346L357 347L356 346M397 346L398 347L397 346M400 346L401 347L400 346M101 347L102 348L101 347M207 347L208 348L207 347M257 347L258 348L257 347M262 347L263 348L262 347M292 347L293 348L292 347M316 347L316 348L319 348L316 347M331 347L332 348L331 347M346 347L347 348L346 347M354 347L355 348L354 347M399 347L400 348L399 347M208 348L209 349L208 348M256 348L257 349L256 348M271 348L272 349L271 348M304 348L302 351L304 348z"/>
<path style="fill:#f3e101; stroke:none;" d="M305.109 349.161C297.701 352.244 301.32 364.985 309.891 361.141C317.028 357.941 311.656 346.437 305.109 349.161z"/>
<path style="fill:#1c5c43; stroke:none;" d="M326 348L327 349L326 348M352 348L353 349L352 348M105 349L106 350L105 349M203 349L204 350L203 349M209 349L210 350L209 349M255 349L256 350L255 349M261 349L262 350L261 349M275 349L276 350L275 349M291 349L292 350L291 349M296 349L297 350L296 349M309 349L310 350L309 349M362 349L363 350L362 349M395 349L396 350L395 349M398 349L399 350L398 349M103 350L104 351L103 350M254 350L255 351L254 350M260 350L261 351L260 350M270 350L271 351L270 350M330.333 350.667L330.667 351.333L330.333 350.667M342 350L343 351L342 350M349 350L350 351L349 350M361 350L362 351L361 350M397 350L398 351L397 350M211 351L212 352L211 351M253 351L254 352L253 351M269 351L270 352L269 351M295 351L296 352L295 351M334 351L334 352L340 352L334 351M348 351L349 352L348 351M360 351L361 352L360 351M107 352L108 353L107 352M206 352L207 353L206 352M290 352L291 353L290 352M301 352L302 353L301 352M347 352L348 353L347 352M358 352L359 353L358 352M393 352L394 353L393 352M396 352L397 353L396 352M105 353L106 354L105 353M108 353L109 354L108 353M207 353L207 356L208 356L207 353M250 353L251 354L250 353M257 353L258 354L257 353M273 353L274 354L273 353M294.333 353.667L294.667 354.333L294.333 353.667z"/>
<path style="fill:#010101; stroke:none;" d="M306 353L305 358L310 357L306 353z"/>
<path style="fill:#1c5c43; stroke:none;" d="M307 353L308 354L307 353M313 353L314 354L313 353M326 353L327 354L326 353M357 353L358 354L357 353M395 353L396 354L395 353M106 354L107 355L106 354M248 354L249 355L248 354M256 354L257 355L256 354M267 354L268 355L267 354M305 354L306 355L305 354M308 354L309 355L308 354M344 354L345 355L344 354M355 354L356 355L355 354M363 354L364 355L363 354M246 355L247 356L246 355M255 355L256 356L255 355M266 355L267 356L266 355M289.333 355.667L289.667 356.333L289.333 355.667M300 355L300 359L301 359L300 355M309 355L310 356L309 355M314.333 355.667L314.667 356.333L314.333 355.667M327 355L328 356L327 355M338 355L338 356L342 356L338 355M353 355L354 356L353 355M391 355L392 356L391 355M110 356L111 357L110 356M211 356L211 360L212 360L211 356M231 356L232 357L231 356M237.667 356.333L238.333 356.667L237.667 356.333M242.667 356.333L243.333 356.667L242.667 356.333M253 356L254 357L253 356M265 356L266 357L265 356M271 356L272 357L271 356M304 356L305 357L304 356M329 356L329 357L333 357L329 356M350 356L351 357L350 356M360 356L361 357L360 356M390 356L391 357L390 356M393 356L394 357L393 356M108 357L109 358L108 357M111 357L112 358L111 357M264 357L265 358L264 357M270 357L271 358L270 357M308 357L309 358L308 357M348 357L349 358L348 357M392 357L393 358L392 357M109 358L110 359L109 358M220 358L221 359L220 358M232 358L233 359L232 358M250 358L251 359L250 358M263 358L264 359L263 358M294 358L295 359L294 358M313 358L314 359L313 358M345 358L346 359L345 358M219 359L220 360L219 359M222 359L223 360L222 359M247 359L248 360L247 359M262 359L263 360L262 359M290 359L291 360L290 359M322 359L323 360L322 359M325.667 359.333L326.333 359.667L325.667 359.333M342 359L343 360L342 359M388 359L389 360L388 359M113 360L114 361L113 360M218 360L219 361L218 360M223 360L224 361L223 360M235.667 360.333L236.333 360.667L235.667 360.333M244.667 360.333L245.333 360.667L244.667 360.333M295 360L296 361L295 360M301 360L302 361L301 360M311 360L312 361L311 360M321 360L322 361L321 360M328.667 360.333L329.333 360.667L328.667 360.333M339 360L340 361L339 360M352 360L353 361L352 360M387 360L388 361L387 360M390 360L391 361L390 360M111 361L112 362L111 361M114 361L115 362L114 361M217 361L218 362L217 361M225 361L226 362L225 361M259 361L260 362L259 361M302 361L303 362L302 361M310 361L311 362L310 361M331.667 361.333L332.333 361.667L331.667 361.333M336 361L337 362L336 361M350 361L351 362L350 361M386 361L387 362L386 361M389 361L390 362L389 361M112 362L113 363L112 362M216 362L217 363L216 362M226 362L227 363L226 362M258 362L259 363L258 362M265 362L266 363L265 362M291 362L292 363L291 362M296 362L297 363L296 362M305.667 362.333L306.333 362.667L305.667 362.333M347 362L348 363L347 362M388 362L389 363L388 362M215 363L216 364L215 363M256 363L257 364L256 363M264 363L265 364L264 363M324 363L325 364L324 363M343.667 363.333L344.333 363.667L343.667 363.333M207 364L208 365L207 364M214 364L215 365L214 364M221 364L222 365L221 364M229 364L230 365L229 364M254 364L255 365L254 364M292 364L293 365L292 364M316 364L317 365L316 364M323 364L324 365L323 364M327 364L328 365L327 364M340.667 364.333L341.333 364.667L340.667 364.333M223 365L224 366L223 365M252 365L253 366L252 365M261 365L262 366L261 365M315 365L316 366L315 365M322 365L323 366L322 365M329.667 365.333L330.333 365.667L329.667 365.333M338 365L339 366L338 365M383 365L384 366L383 365M118 366L119 367L118 366M208 366L209 367L208 366M224 366L225 367L224 366M232 366L233 367L232 366M250 366L251 367L250 366M293 366L294 367L293 366M298 366L299 367L298 366M313 366L314 367L313 366M321 366L322 367L321 366M334 366L334 367L337 367L334 366M382 366L383 367L382 366M385 366L386 367L385 366M116 367L117 368L116 367M119 367L120 368L119 367M209 367L210 368L209 367M234 367L235 368L234 367M246.667 367.333L247.333 367.667L246.667 367.333M258 367L259 368L258 367M309.667 367.333L310.333 367.667L309.667 367.333M381 367L382 368L381 367M384 367L385 368L384 367M117 368L118 369L117 368M120 368L121 369L120 368M216 368L217 369L216 368M227 368L228 369L227 368M238 368L238 369L243 369L238 368M256 368L257 369L256 368M294 368L295 369L294 368M300 368L300 369L305 369L300 368M318 368L319 369L318 368M380 368L381 369L380 368M383 368L384 369L383 368M118 369L119 370L118 369M121 369L122 370L121 369M212 369L212 370L215 370L212 369M254 369L255 370L254 369M317 369L318 370L317 369M230 370L231 371L230 370M251.667 370.333L252.333 370.667L251.667 370.333M232 371L233 372L232 371M248.667 371.333L249.333 371.667L248.667 371.333M296 371L297 372L296 371M312 371L313 372L312 371M235 372L235 373L240 373L235 372M242 372L242 373L246 373L242 372M298 372L298 373L301 373L298 372M304 372L304 373L309 373L304 372M130 378L131 379L130 378M131 379L132 380L131 379M132 380L133 381L132 380M133 381L134 382L133 381M367 381L368 382L367 381M134 382L135 383L134 382M366 382L367 383L366 382M132 383L133 384L132 383M365 383L366 384L365 383M133 384L134 385L133 384M367 384L368 385L367 384M134 385L135 386L134 385M366 385L367 386L366 385M139 386L140 387L139 386M365 386L366 387L365 386M140 387L141 388L140 387M360 387L361 388L360 387M364 387L365 388L364 387M141 388L142 389L141 388M359 388L360 389L359 388M139 389L140 390L139 389M140 390L141 391L140 390M360 390L361 391L360 390M145 391L146 392L145 391M355 391L356 392L355 391M359 391L360 392L359 391M143 392L144 393L143 392M354 392L355 393L354 392M144 393L145 394L144 393M148 393L149 394L148 393M356 393L357 394L356 393M149 394L150 395L149 394M351 394L352 395L351 394M355 394L356 395L355 394M147 395L148 396L147 395M151 395L152 396L151 395M148 396L149 397L148 396M152 396L153 397L152 396M348 396L349 397L348 396M352 396L353 397L352 396M351 397L352 398L351 397M151 398L152 399L151 398M155 398L156 399L155 398M345 398L346 399L345 398M349 398L350 399L349 398M157 399L158 400L157 399M154 400L155 401L154 400M158 400L159 401L158 400M342 400L343 401L342 400M346 400L347 401L346 400M156 401L157 402L156 401M160 401L161 402L160 401M340 401L341 402L340 401M162 402L163 403L162 402M338 402L339 403L338 402M343 402L344 403L343 402M159 403L160 404L159 403M341 403L342 404L341 403M165 404L166 405L165 404M335 404L336 405L335 404M167 405L168 406L167 405M333 405L334 406L333 405M338 405L339 406L338 405M164 406L165 407L164 406M169 406L170 407L169 406M331 406L332 407L331 406M336 406L337 407L336 406M166 407L167 408L166 407M171 407L172 408L171 407M334 407L335 408L334 407M168 408L169 409L168 408M173 408L174 409L173 408M332 408L333 409L332 408M170 409L171 410L170 409M175 409L176 410L175 409M325 409L326 410L325 409M172 410L173 411L172 410M177 410L178 411L177 410M323 410L324 411L323 410M328 410L329 411L328 410M174 411L175 412L174 411M179 411L180 412L179 411M321 411L322 412L321 411M326 411L327 412L326 411M176 412L177 413L176 412M181 412L182 413L181 412M324 412L325 413L324 412M178 413L179 414L178 413M184 413L185 414L184 413M316 413L317 414L316 413M322 413L323 414L322 413M180 414L181 415L180 414M186 414L187 415L186 414M314 414L315 415L314 414M320 414L321 415L320 414M183 415L184 416L183 415M189 415L190 416L189 415M311 415L312 416L311 415M185 416L186 417L185 416M192 416L193 417L192 416M308 416L309 417L308 416M315 416L316 417L315 416M188 417L189 418L188 417M194.667 417.333L195.333 417.667L194.667 417.333M305.667 417.333L306.333 417.667L305.667 417.333M312.667 417.333L313.333 417.667L312.667 417.333M191 418L192 419L191 418M197.667 418.333L198.333 418.667L197.667 418.333M302.667 418.333L303.333 418.667L302.667 418.333M310 418L311 419L310 418M194 419L195 420L194 419M201 419L202 420L201 419M299 419L300 420L299 419M307 419L308 420L307 419M196.667 420.333L197.333 420.667L196.667 420.333M204 420L205 421L204 420M295.667 420.333L296.333 420.667L295.667 420.333M304 420L305 421L304 420M199.667 421.333L200.333 421.667L199.667 421.333M208 421L209 422L208 421M291.667 421.333L292.333 421.667L291.667 421.333M300.667 421.333L301.333 421.667L300.667 421.333M203.667 422.333L204.333 422.667L203.667 422.333M212.667 422.333L213.333 422.667L212.667 422.333M287.667 422.333L288.333 422.667L287.667 422.333M297 422L298 423L297 422M207.667 423.333L208.333 423.667L207.667 423.333M216 423L216 424L219 424L216 423M282.667 423.333L283.333 423.667L282.667 423.333M293 423L294 424L293 423M211.667 424.333L212.333 424.667L211.667 424.333M223 424L223 425L226 425L223 424M276 424L276 425L279 425L276 424M288.667 424.333L289.333 424.667L288.667 424.333M216.667 425.333L217.333 425.667L216.667 425.333M230 425L230 426L234 426L230 425M269 425L269 426L272 426L269 425M283.667 425.333L284.333 425.667L283.667 425.333M222.667 426.333L223.333 426.667L222.667 426.333M242 426L242 427L261 427L242 426M278.667 426.333L279.333 426.667L278.667 426.333M229 427L229 428L232 428L229 427M271 427L271 428L274 428L271 427M241 428L241 429L262 429L241 428z"/>
</svg>
